<?xml version="1.0" standalone="no"?>
<!DOCTYPE svg PUBLIC "-//W3C//DTD SVG 20010904//EN"
 "http://www.w3.org/TR/2001/REC-SVG-20010904/DTD/svg10.dtd">
<svg version="1.0" xmlns="http://www.w3.org/2000/svg"
 width="227.000000pt" height="95.000000pt" viewBox="0 0 227.000000 95.000000"
 preserveAspectRatio="xMidYMid meet">

<g transform="translate(0.000000,95.000000) scale(0.100000,-0.100000)" stroke="none">
<path d="M102 700 l-23 -40 158 0 c164 0 230 -9 244 -32 29 -46 -17 -105 -104
-134 -29 -9 -53 -18 -55 -19 -7 -6 70 -171 85 -182 11 -8 50 -13 105 -13 74 0
91 3 108 20 19 19 20 19 53 0 123 -73 300 13 257 124 l-10 26 76 0 c57 0 75
-3 71 -12 -56 -148 -49 -162 73 -156 61 3 97 10 126 26 50 25 93 74 101 113 5
27 9 29 50 29 39 0 44 -2 38 -17 -24 -59 -36 -105 -33 -125 3 -22 7 -23 102
-26 69 -2 103 1 114 10 12 10 16 10 19 1 6 -16 67 -17 96 -2 12 7 45 31 74 55
28 24 53 44 56 44 3 0 -2 -18 -9 -41 -22 -62 -11 -69 102 -69 85 0 95 2 121
25 l28 24 -67 1 c-38 0 -68 3 -68 8 0 4 9 31 21 61 47 125 -10 150 -127 55
-30 -25 -58 -44 -60 -41 -2 2 2 23 10 45 l15 42 -58 0 -58 0 -30 -82 -30 -83
-67 -3 c-36 -2 -66 -1 -66 1 0 23 44 121 62 139 l23 23 -179 3 c-148 2 -183 0
-202 -13 -28 -18 -33 -65 -9 -85 14 -12 13 -16 -6 -36 -19 -21 -66 -40 -75
-31 -2 2 2 21 10 43 8 21 35 96 60 167 l45 127 -58 0 -59 0 -30 -82 -30 -83
-189 -5 c-158 -4 -193 -8 -216 -23 -42 -27 -60 -61 -55 -107 l4 -40 -66 0 -65
0 -25 57 c-14 31 -26 60 -28 64 -2 5 12 15 32 23 19 8 51 26 72 40 105 71 99
184 -12 215 -22 6 -124 11 -229 11 l-190 0 -23 -40z m738 -255 c0 -2 -9 -29
-21 -60 -18 -49 -23 -55 -50 -55 -24 0 -29 4 -29 25 0 14 7 41 14 60 13 31 19
35 50 35 20 0 36 -2 36 -5z"/>
<path d="M1508 696 c-39 -30 -40 -92 0 -122 22 -17 82 -17 104 0 39 30 40 92
0 122 -22 17 -82 17 -104 0z"/>
<path d="M245 611 c-6 -10 -115 -319 -115 -327 0 -2 26 -4 58 -4 l57 0 58 163
c31 89 57 165 57 170 0 10 -108 9 -115 -2z"/>
</g>
</svg>
